<svg width="46" height="46" fill="none" xmlns="http://www.w3.org/2000/svg"><path d="M27.6 29.133v-3.066c.69-.342 2.664-2.691 2.871-4.527.543-.041 1.395-.54 1.647-2.507.135-1.056-.402-1.65-.727-1.837 0 0 .81-1.538.81-3.395 0-3.722-1.462-6.9-4.6-6.9 0 0-1.09-2.3-4.6-2.3-6.505 0-9.2 4.173-9.2 9.2 0 1.693.81 3.395.81 3.395-.326.187-.863.782-.728 1.837.252 1.967 1.104 2.466 1.647 2.507.207 1.836 2.18 4.185 2.87 4.527v3.066c-1.533 4.6-13.8 1.534-13.8 12.267h36.8c0-10.733-12.266-7.667-13.8-12.267z" fill="#EB8671"/></svg>