<svg width="52" height="8" viewBox="0 0 52 8" fill="none" xmlns="http://www.w3.org/2000/svg">
<path d="M3.297 4.138L2.5095 2.0975C2.48617 2.03683 2.46167 1.96683 2.436 1.8875C2.41033 1.80583 2.38583 1.7195 2.3625 1.6285C2.3135 1.8175 2.26333 1.975 2.212 2.101L1.4245 4.138H3.297ZM4.711 6H4.186C4.12533 6 4.07633 5.98483 4.039 5.9545C4.00167 5.92417 3.97367 5.88567 3.955 5.839L3.486 4.628H1.2355L0.7665 5.839C0.7525 5.881 0.725667 5.91833 0.686 5.951C0.646333 5.98367 0.596167 6 0.5355 6H0.014L2.0195 0.9845H2.7055L4.711 6ZM7.72849 5.545V2.9445H6.60499C6.58166 3.3085 6.54899 3.6305 6.50699 3.9105C6.46499 4.1905 6.41599 4.43667 6.35999 4.649C6.30633 4.859 6.24566 5.0375 6.17799 5.1845C6.11266 5.3315 6.04383 5.45167 5.97149 5.545H7.72849ZM8.98149 5.5275V7.029C8.98149 7.08967 8.96399 7.13633 8.92899 7.169C8.89633 7.204 8.85316 7.2215 8.79949 7.2215H8.41799V6H5.43599V7.043C5.43599 7.08733 5.42199 7.12817 5.39399 7.1655C5.36833 7.20283 5.32516 7.2215 5.26449 7.2215H4.87249V5.545H4.98799C5.06966 5.545 5.15016 5.531 5.22949 5.503C5.31116 5.475 5.38933 5.4225 5.46399 5.3455C5.53866 5.26617 5.60866 5.15533 5.67399 5.013C5.74166 4.87067 5.80233 4.68517 5.85599 4.4565C5.90966 4.22783 5.95633 3.95017 5.99599 3.6235C6.03566 3.2945 6.06716 2.90483 6.09049 2.4545H8.33399V5.5275H8.98149ZM10.2391 5.146C10.3535 5.3 10.4783 5.4085 10.6136 5.4715C10.749 5.5345 10.9006 5.566 11.0686 5.566C11.4 5.566 11.6543 5.44817 11.8316 5.2125C12.009 4.97683 12.0976 4.64083 12.0976 4.2045C12.0976 3.9735 12.0766 3.77517 12.0346 3.6095C11.995 3.44383 11.9366 3.3085 11.8596 3.2035C11.7826 3.09617 11.6881 3.018 11.5761 2.969C11.4641 2.92 11.337 2.8955 11.1946 2.8955C10.9916 2.8955 10.8131 2.94217 10.6591 3.0355C10.5075 3.12883 10.3675 3.26067 10.2391 3.431V5.146ZM10.2076 3.004C10.357 2.81967 10.5296 2.6715 10.7256 2.5595C10.9216 2.4475 11.1456 2.3915 11.3976 2.3915C11.603 2.3915 11.7885 2.43117 11.9541 2.5105C12.1198 2.5875 12.261 2.703 12.3776 2.857C12.4943 3.00867 12.5841 3.19767 12.6471 3.424C12.7101 3.65033 12.7416 3.9105 12.7416 4.2045C12.7416 4.46583 12.7066 4.70967 12.6366 4.936C12.5666 5.16 12.4651 5.35483 12.3321 5.5205C12.2015 5.68383 12.0405 5.81333 11.8491 5.909C11.6601 6.00233 11.4466 6.049 11.2086 6.049C10.9916 6.049 10.805 6.01283 10.6486 5.9405C10.4946 5.86583 10.3581 5.76317 10.2391 5.6325V7.2005H9.61264V2.4545H9.98714C10.0758 2.4545 10.1306 2.49767 10.1516 2.584L10.2076 3.004ZM15.9026 3.8405C15.9026 3.69583 15.8816 3.564 15.8396 3.445C15.8 3.32367 15.7405 3.21983 15.6611 3.1335C15.5841 3.04483 15.4896 2.97717 15.3776 2.9305C15.2656 2.8815 15.1385 2.857 14.9961 2.857C14.6975 2.857 14.4606 2.9445 14.2856 3.1195C14.113 3.29217 14.0056 3.5325 13.9636 3.8405H15.9026ZM16.4066 5.503C16.3296 5.59633 16.2375 5.678 16.1301 5.748C16.0228 5.81567 15.9073 5.87167 15.7836 5.916C15.6623 5.96033 15.5363 5.993 15.4056 6.014C15.275 6.03733 15.1455 6.049 15.0171 6.049C14.7721 6.049 14.5458 6.00817 14.3381 5.9265C14.1328 5.8425 13.9543 5.72117 13.8026 5.5625C13.6533 5.4015 13.5366 5.20317 13.4526 4.9675C13.3686 4.73183 13.3266 4.46117 13.3266 4.1555C13.3266 3.90817 13.364 3.67717 13.4386 3.4625C13.5156 3.24783 13.6253 3.06233 13.7676 2.906C13.91 2.74733 14.0838 2.62367 14.2891 2.535C14.4945 2.444 14.7255 2.3985 14.9821 2.3985C15.1945 2.3985 15.3905 2.43467 15.5701 2.507C15.7521 2.577 15.9085 2.67967 16.0391 2.815C16.1721 2.948 16.276 3.11367 16.3506 3.312C16.4253 3.508 16.4626 3.732 16.4626 3.984C16.4626 4.082 16.4521 4.14733 16.4311 4.18C16.4101 4.21267 16.3705 4.229 16.3121 4.229H13.9426C13.9496 4.453 13.98 4.64783 14.0336 4.8135C14.0896 4.97917 14.1666 5.118 14.2646 5.23C14.3626 5.33967 14.4793 5.4225 14.6146 5.4785C14.75 5.53217 14.9016 5.559 15.0696 5.559C15.226 5.559 15.3601 5.5415 15.4721 5.5065C15.5865 5.46917 15.6845 5.4295 15.7661 5.3875C15.8478 5.3455 15.9155 5.307 15.9691 5.272C16.0251 5.23467 16.073 5.216 16.1126 5.216C16.164 5.216 16.2036 5.23583 16.2316 5.2755L16.4066 5.503ZM19.6954 3.0845C19.6767 3.11017 19.658 3.13 19.6394 3.144C19.6207 3.158 19.595 3.165 19.5624 3.165C19.5274 3.165 19.4889 3.151 19.4469 3.123C19.4049 3.09267 19.3524 3.06 19.2894 3.025C19.2287 2.99 19.1529 2.9585 19.0619 2.9305C18.9732 2.90017 18.8635 2.885 18.7329 2.885C18.5579 2.885 18.4039 2.9165 18.2709 2.9795C18.1379 3.04017 18.0259 3.12883 17.9349 3.2455C17.8462 3.36217 17.7785 3.50333 17.7319 3.669C17.6875 3.83467 17.6654 4.02017 17.6654 4.2255C17.6654 4.44017 17.6899 4.6315 17.7389 4.7995C17.7879 4.96517 17.8567 5.10517 17.9454 5.2195C18.0364 5.3315 18.1449 5.41783 18.2709 5.4785C18.3992 5.53683 18.5427 5.566 18.7014 5.566C18.853 5.566 18.9779 5.5485 19.0759 5.5135C19.1739 5.47617 19.2544 5.43533 19.3174 5.391C19.3827 5.34667 19.4364 5.307 19.4784 5.272C19.5227 5.23467 19.5659 5.216 19.6079 5.216C19.6592 5.216 19.6989 5.23583 19.7269 5.2755L19.9019 5.503C19.8249 5.59867 19.7374 5.68033 19.6394 5.748C19.5414 5.81567 19.4352 5.87283 19.3209 5.9195C19.2089 5.96383 19.091 5.9965 18.9674 6.0175C18.8437 6.0385 18.7177 6.049 18.5894 6.049C18.3677 6.049 18.1612 6.00817 17.9699 5.9265C17.7809 5.84483 17.6164 5.727 17.4764 5.573C17.3364 5.41667 17.2267 5.22533 17.1474 4.999C17.068 4.77267 17.0284 4.51483 17.0284 4.2255C17.0284 3.96183 17.0645 3.718 17.1369 3.494C17.2115 3.27 17.3189 3.0775 17.4589 2.9165C17.6012 2.75317 17.775 2.626 17.9804 2.535C18.188 2.444 18.426 2.3985 18.6944 2.3985C18.944 2.3985 19.1634 2.43933 19.3524 2.521C19.5437 2.60033 19.7129 2.7135 19.8599 2.8605L19.6954 3.0845ZM24.8047 5.545V2.9445H23.6812C23.6578 3.3085 23.6252 3.6305 23.5832 3.9105C23.5412 4.1905 23.4922 4.43667 23.4362 4.649C23.3825 4.859 23.3218 5.0375 23.2542 5.1845C23.1888 5.3315 23.12 5.45167 23.0477 5.545H24.8047ZM26.0577 5.5275V7.029C26.0577 7.08967 26.0402 7.13633 26.0052 7.169C25.9725 7.204 25.9293 7.2215 25.8757 7.2215H25.4942V6H22.5122V7.043C22.5122 7.08733 22.4982 7.12817 22.4702 7.1655C22.4445 7.20283 22.4013 7.2215 22.3407 7.2215H21.9487V5.545H22.0642C22.1458 5.545 22.2263 5.531 22.3057 5.503C22.3873 5.475 22.4655 5.4225 22.5402 5.3455C22.6148 5.26617 22.6848 5.15533 22.7502 5.013C22.8178 4.87067 22.8785 4.68517 22.9322 4.4565C22.9858 4.22783 23.0325 3.95017 23.0722 3.6235C23.1118 3.2945 23.1433 2.90483 23.1667 2.4545H25.4102V5.5275H26.0577ZM28.1218 2.3985C28.3808 2.3985 28.6141 2.44167 28.8218 2.528C29.0295 2.61433 29.2068 2.73683 29.3538 2.8955C29.5008 3.05417 29.6128 3.24667 29.6898 3.473C29.7691 3.697 29.8088 3.94783 29.8088 4.2255C29.8088 4.5055 29.7691 4.7575 29.6898 4.9815C29.6128 5.2055 29.5008 5.39683 29.3538 5.5555C29.2068 5.71417 29.0295 5.83667 28.8218 5.923C28.6141 6.007 28.3808 6.049 28.1218 6.049C27.8605 6.049 27.6248 6.007 27.4148 5.923C27.2071 5.83667 27.0298 5.71417 26.8828 5.5555C26.7358 5.39683 26.6226 5.2055 26.5433 4.9815C26.4663 4.7575 26.4278 4.5055 26.4278 4.2255C26.4278 3.94783 26.4663 3.697 26.5433 3.473C26.6226 3.24667 26.7358 3.05417 26.8828 2.8955C27.0298 2.73683 27.2071 2.61433 27.4148 2.528C27.6248 2.44167 27.8605 2.3985 28.1218 2.3985ZM28.1218 5.5625C28.4718 5.5625 28.7331 5.44583 28.9058 5.2125C29.0785 4.97683 29.1648 4.649 29.1648 4.229C29.1648 3.80667 29.0785 3.47767 28.9058 3.242C28.7331 3.00633 28.4718 2.8885 28.1218 2.8885C27.9445 2.8885 27.7893 2.91883 27.6563 2.9795C27.5256 3.04017 27.416 3.12767 27.3273 3.242C27.241 3.35633 27.1756 3.4975 27.1313 3.6655C27.0893 3.83117 27.0683 4.019 27.0683 4.229C27.0683 4.649 27.1546 4.97683 27.3273 5.2125C27.5023 5.44583 27.7671 5.5625 28.1218 5.5625ZM33.0665 3.0845C33.0478 3.11017 33.0291 3.13 33.0105 3.144C32.9918 3.158 32.9661 3.165 32.9335 3.165C32.8985 3.165 32.86 3.151 32.818 3.123C32.776 3.09267 32.7235 3.06 32.6605 3.025C32.5998 2.99 32.524 2.9585 32.433 2.9305C32.3443 2.90017 32.2346 2.885 32.104 2.885C31.929 2.885 31.775 2.9165 31.642 2.9795C31.509 3.04017 31.397 3.12883 31.306 3.2455C31.2173 3.36217 31.1496 3.50333 31.103 3.669C31.0586 3.83467 31.0365 4.02017 31.0365 4.2255C31.0365 4.44017 31.061 4.6315 31.11 4.7995C31.159 4.96517 31.2278 5.10517 31.3165 5.2195C31.4075 5.3315 31.516 5.41783 31.642 5.4785C31.7703 5.53683 31.9138 5.566 32.0725 5.566C32.2241 5.566 32.349 5.5485 32.447 5.5135C32.545 5.47617 32.6255 5.43533 32.6885 5.391C32.7538 5.34667 32.8075 5.307 32.8495 5.272C32.8938 5.23467 32.937 5.216 32.979 5.216C33.0303 5.216 33.07 5.23583 33.098 5.2755L33.273 5.503C33.196 5.59867 33.1085 5.68033 33.0105 5.748C32.9125 5.81567 32.8063 5.87283 32.692 5.9195C32.58 5.96383 32.4621 5.9965 32.3385 6.0175C32.2148 6.0385 32.0888 6.049 31.9605 6.049C31.7388 6.049 31.5323 6.00817 31.341 5.9265C31.152 5.84483 30.9875 5.727 30.8475 5.573C30.7075 5.41667 30.5978 5.22533 30.5185 4.999C30.4391 4.77267 30.3995 4.51483 30.3995 4.2255C30.3995 3.96183 30.4356 3.718 30.508 3.494C30.5826 3.27 30.69 3.0775 30.83 2.9165C30.9723 2.75317 31.1461 2.626 31.3515 2.535C31.5591 2.444 31.7971 2.3985 32.0655 2.3985C32.3151 2.3985 32.5345 2.43933 32.7235 2.521C32.9148 2.60033 33.084 2.7135 33.231 2.8605L33.0665 3.0845ZM36.8887 2.9305H35.5272V6H34.9042V2.9305H33.5427V2.4545H36.8887V2.9305ZM39.3701 4.404C39.0831 4.41333 38.8381 4.43667 38.6351 4.474C38.4344 4.509 38.2699 4.55567 38.1416 4.614C38.0156 4.67233 37.9234 4.74117 37.8651 4.8205C37.8091 4.89983 37.7811 4.9885 37.7811 5.0865C37.7811 5.17983 37.7962 5.26033 37.8266 5.328C37.8569 5.39567 37.8977 5.45167 37.9491 5.496C38.0027 5.538 38.0646 5.5695 38.1346 5.5905C38.2069 5.60917 38.2839 5.6185 38.3656 5.6185C38.4752 5.6185 38.5756 5.608 38.6666 5.587C38.7576 5.56367 38.8427 5.531 38.9221 5.489C39.0037 5.447 39.0807 5.39683 39.1531 5.3385C39.2277 5.28017 39.3001 5.21367 39.3701 5.139V4.404ZM37.3576 2.955C37.5536 2.766 37.7647 2.62483 37.9911 2.5315C38.2174 2.43817 38.4682 2.3915 38.7436 2.3915C38.9419 2.3915 39.1181 2.42417 39.2721 2.4895C39.4261 2.55483 39.5556 2.64583 39.6606 2.7625C39.7656 2.87917 39.8449 3.02033 39.8986 3.186C39.9522 3.35167 39.9791 3.53367 39.9791 3.732V6H39.7026C39.6419 6 39.5952 5.99067 39.5626 5.972C39.5299 5.951 39.5042 5.91133 39.4856 5.853L39.4156 5.517C39.3222 5.60333 39.2312 5.68033 39.1426 5.748C39.0539 5.81333 38.9606 5.86933 38.8626 5.916C38.7646 5.96033 38.6596 5.99417 38.5476 6.0175C38.4379 6.04317 38.3154 6.056 38.1801 6.056C38.0424 6.056 37.9129 6.03733 37.7916 6C37.6702 5.96033 37.5641 5.902 37.4731 5.825C37.3844 5.748 37.3132 5.65117 37.2596 5.5345C37.2082 5.4155 37.1826 5.2755 37.1826 5.1145C37.1826 4.9745 37.2211 4.84033 37.2981 4.712C37.3751 4.58133 37.4999 4.46583 37.6726 4.3655C37.8452 4.26517 38.0704 4.1835 38.3481 4.1205C38.6257 4.05517 38.9664 4.01783 39.3701 4.0085V3.732C39.3701 3.45667 39.3106 3.249 39.1916 3.109C39.0726 2.96667 38.8987 2.8955 38.6701 2.8955C38.5161 2.8955 38.3866 2.91533 38.2816 2.955C38.1789 2.99233 38.0891 3.0355 38.0121 3.0845C37.9374 3.13117 37.8721 3.17433 37.8161 3.214C37.7624 3.25133 37.7087 3.27 37.6551 3.27C37.6131 3.27 37.5769 3.2595 37.5466 3.2385C37.5162 3.21517 37.4906 3.18717 37.4696 3.1545L37.3576 2.955ZM42.2896 5.5625C42.5229 5.5625 42.7072 5.50883 42.8426 5.4015C42.9779 5.29183 43.0456 5.1425 43.0456 4.9535C43.0456 4.8695 43.0327 4.79367 43.0071 4.726C42.9814 4.656 42.9394 4.59533 42.8811 4.544C42.8227 4.49267 42.7446 4.453 42.6466 4.425C42.5509 4.397 42.4331 4.383 42.2931 4.383H41.5266V5.5625H42.2896ZM41.5266 2.8745V3.9875H42.2091C42.3117 3.9875 42.4062 3.9735 42.4926 3.9455C42.5812 3.91517 42.6571 3.87433 42.7201 3.823C42.7831 3.76933 42.8321 3.70633 42.8671 3.634C42.9021 3.55933 42.9196 3.47767 42.9196 3.389C42.9196 3.32367 42.9079 3.26067 42.8846 3.2C42.8612 3.137 42.8216 3.08217 42.7656 3.0355C42.7096 2.9865 42.6361 2.948 42.5451 2.92C42.4541 2.88967 42.3421 2.8745 42.2091 2.8745H41.5266ZM42.2266 2.4545C42.4459 2.4545 42.6337 2.47667 42.7901 2.521C42.9464 2.56533 43.0747 2.626 43.1751 2.703C43.2754 2.77767 43.3489 2.86633 43.3956 2.969C43.4422 3.07167 43.4656 3.18133 43.4656 3.298C43.4656 3.375 43.4551 3.4555 43.4341 3.5395C43.4131 3.6235 43.3757 3.704 43.3221 3.781C43.2707 3.858 43.1996 3.928 43.1086 3.991C43.0199 4.05167 42.9079 4.0995 42.7726 4.1345C43.0432 4.18117 43.2521 4.27567 43.3991 4.418C43.5461 4.558 43.6196 4.7435 43.6196 4.9745C43.6196 5.14717 43.5846 5.29767 43.5146 5.426C43.4469 5.552 43.3524 5.65817 43.2311 5.7445C43.1121 5.83083 42.9721 5.895 42.8111 5.937C42.6501 5.979 42.4774 6 42.2931 6H40.9281V2.4545H42.2266ZM46.5532 2.6295C46.5859 2.57817 46.6291 2.53617 46.6827 2.5035C46.7364 2.47083 46.7936 2.4545 46.8542 2.4545H47.3407L46.4202 3.8055C46.3642 3.89183 46.3059 3.963 46.2452 4.019C46.1846 4.07267 46.1099 4.11467 46.0212 4.145C46.1332 4.17533 46.2277 4.22317 46.3047 4.2885C46.3817 4.3515 46.4506 4.43317 46.5112 4.5335L47.4422 6H47.0082C46.8962 6 46.8099 5.98133 46.7492 5.944C46.6886 5.90667 46.6361 5.853 46.5917 5.783L45.9022 4.6805C45.7926 4.4985 45.6281 4.4075 45.4087 4.4075H45.0272V6.0035H44.4007V2.4545H45.0272V3.9875H45.3632C45.5499 3.9875 45.6957 3.90817 45.8007 3.7495L46.5532 2.6295ZM51.0653 2.4545V6H50.4423V3.592C50.4423 3.54533 50.4446 3.49517 50.4493 3.4415C50.4539 3.38783 50.4598 3.33417 50.4668 3.2805C50.4458 3.32717 50.4248 3.37033 50.4038 3.41C50.3828 3.44967 50.3606 3.48583 50.3373 3.5185L48.6258 5.846C48.6001 5.88333 48.5674 5.9195 48.5278 5.9545C48.4904 5.98717 48.4484 6.0035 48.4018 6.0035H48.0238V2.458H48.6503V4.866C48.6503 4.91033 48.6479 4.95933 48.6433 5.013C48.6386 5.06433 48.6328 5.11683 48.6258 5.1705C48.6468 5.12617 48.6678 5.08533 48.6888 5.048C48.7098 5.00833 48.7308 4.97217 48.7518 4.9395L50.4633 2.612C50.4889 2.57467 50.5216 2.53967 50.5613 2.507C50.6009 2.472 50.6441 2.4545 50.6908 2.4545H51.0653Z" fill="black" fill-opacity="0.54"/>
</svg>
