<svg width="19" height="7" viewBox="0 0 19 7" fill="none" xmlns="http://www.w3.org/2000/svg">
<path d="M3.7345 5.447L3.731 6H0.6405V0.9845H3.731V1.5375H1.3195V3.2035H3.2725V3.7355H1.3195V5.447H3.7345ZM4.47754 3.6375H6.20654V4.166H4.47754V3.6375ZM7.1312 6V2.4545H7.5057C7.59436 2.4545 7.6492 2.49767 7.6702 2.584L7.7157 2.948C7.84636 2.787 7.99336 2.65517 8.1567 2.5525C8.32003 2.44983 8.50903 2.3985 8.7237 2.3985C8.9617 2.3985 9.1542 2.465 9.3012 2.598C9.45053 2.731 9.55786 2.91067 9.6232 3.137C9.67453 3.00867 9.73986 2.89783 9.8192 2.8045C9.90086 2.71117 9.99186 2.63417 10.0922 2.5735C10.1925 2.51283 10.2987 2.4685 10.4107 2.4405C10.525 2.4125 10.6405 2.3985 10.7572 2.3985C10.9439 2.3985 11.1095 2.42883 11.2542 2.4895C11.4012 2.54783 11.5249 2.63417 11.6252 2.7485C11.7279 2.86283 11.806 3.004 11.8597 3.172C11.9134 3.33767 11.9402 3.52783 11.9402 3.7425V6H11.3137V3.7425C11.3137 3.46483 11.253 3.25483 11.1317 3.1125C11.0104 2.96783 10.8354 2.8955 10.6067 2.8955C10.504 2.8955 10.406 2.91417 10.3127 2.9515C10.2217 2.9865 10.1412 3.039 10.0712 3.109C10.0012 3.179 9.9452 3.26767 9.9032 3.375C9.86353 3.48 9.8437 3.6025 9.8437 3.7425V6H9.2172V3.7425C9.2172 3.45783 9.16003 3.2455 9.0457 3.1055C8.93136 2.9655 8.76453 2.8955 8.5452 2.8955C8.3912 2.8955 8.24886 2.9375 8.1182 3.0215C7.98753 3.10317 7.86736 3.21517 7.7577 3.3575V6H7.1312ZM14.8086 4.404C14.5216 4.41333 14.2766 4.43667 14.0736 4.474C13.8729 4.509 13.7084 4.55567 13.5801 4.614C13.4541 4.67233 13.3619 4.74117 13.3036 4.8205C13.2476 4.89983 13.2196 4.9885 13.2196 5.0865C13.2196 5.17983 13.2347 5.26033 13.2651 5.328C13.2954 5.39567 13.3362 5.45167 13.3876 5.496C13.4412 5.538 13.5031 5.5695 13.5731 5.5905C13.6454 5.60917 13.7224 5.6185 13.8041 5.6185C13.9137 5.6185 14.0141 5.608 14.1051 5.587C14.1961 5.56367 14.2812 5.531 14.3606 5.489C14.4422 5.447 14.5192 5.39683 14.5916 5.3385C14.6662 5.28017 14.7386 5.21367 14.8086 5.139V4.404ZM12.7961 2.955C12.9921 2.766 13.2032 2.62483 13.4296 2.5315C13.6559 2.43817 13.9067 2.3915 14.1821 2.3915C14.3804 2.3915 14.5566 2.42417 14.7106 2.4895C14.8646 2.55483 14.9941 2.64583 15.0991 2.7625C15.2041 2.87917 15.2834 3.02033 15.3371 3.186C15.3907 3.35167 15.4176 3.53367 15.4176 3.732V6H15.1411C15.0804 6 15.0337 5.99067 15.0011 5.972C14.9684 5.951 14.9427 5.91133 14.9241 5.853L14.8541 5.517C14.7607 5.60333 14.6697 5.68033 14.5811 5.748C14.4924 5.81333 14.3991 5.86933 14.3011 5.916C14.2031 5.96033 14.0981 5.99417 13.9861 6.0175C13.8764 6.04317 13.7539 6.056 13.6186 6.056C13.4809 6.056 13.3514 6.03733 13.2301 6C13.1087 5.96033 13.0026 5.902 12.9116 5.825C12.8229 5.748 12.7517 5.65117 12.6981 5.5345C12.6467 5.4155 12.6211 5.2755 12.6211 5.1145C12.6211 4.9745 12.6596 4.84033 12.7366 4.712C12.8136 4.58133 12.9384 4.46583 13.1111 4.3655C13.2837 4.26517 13.5089 4.1835 13.7866 4.1205C14.0642 4.05517 14.4049 4.01783 14.8086 4.0085V3.732C14.8086 3.45667 14.7491 3.249 14.6301 3.109C14.5111 2.96667 14.3372 2.8955 14.1086 2.8955C13.9546 2.8955 13.8251 2.91533 13.7201 2.955C13.6174 2.99233 13.5276 3.0355 13.4506 3.0845C13.3759 3.13117 13.3106 3.17433 13.2546 3.214C13.2009 3.25133 13.1472 3.27 13.0936 3.27C13.0516 3.27 13.0154 3.2595 12.9851 3.2385C12.9547 3.21517 12.9291 3.18717 12.9081 3.1545L12.7961 2.955ZM17.0245 2.4545V6H16.4015V2.4545H17.0245ZM17.1575 1.3415C17.1575 1.40217 17.1447 1.45933 17.119 1.513C17.0957 1.56433 17.063 1.611 17.021 1.653C16.9814 1.69267 16.9335 1.72417 16.8775 1.7475C16.8239 1.77083 16.7667 1.7825 16.706 1.7825C16.6454 1.7825 16.5882 1.77083 16.5345 1.7475C16.4832 1.72417 16.4377 1.69267 16.398 1.653C16.3584 1.611 16.3269 1.56433 16.3035 1.513C16.2802 1.45933 16.2685 1.40217 16.2685 1.3415C16.2685 1.28083 16.2802 1.22367 16.3035 1.17C16.3269 1.114 16.3584 1.06617 16.398 1.0265C16.4377 0.9845 16.4832 0.951833 16.5345 0.9285C16.5882 0.905166 16.6454 0.8935 16.706 0.8935C16.7667 0.8935 16.8239 0.905166 16.8775 0.9285C16.9335 0.951833 16.9814 0.9845 17.021 1.0265C17.063 1.06617 17.0957 1.114 17.119 1.17C17.1447 1.22367 17.1575 1.28083 17.1575 1.3415ZM18.6922 0.8445V6H18.0692V0.8445H18.6922Z" fill="black" fill-opacity="0.54"/>
</svg>
