<svg width="23" height="23" viewBox="0 0 23 23" fill="none" xmlns="http://www.w3.org/2000/svg">
<path d="M2.7381 0C1.23214 0 0 1.23176 0 2.73724V20.2555C0 21.761 1.23214 22.9928 2.7381 22.9928H11.9556C12.0145 23.0024 12.0754 23.0024 12.1343 22.9928H15.2414C15.3002 23.0024 15.3611 23.0024 15.42 22.9928H20.2619C21.7679 22.9928 23 21.761 23 20.2555V2.73724C23 1.23176 21.7679 0 20.2619 0H2.7381ZM2.7381 1.09489H20.2619C21.1753 1.09489 21.9048 1.82411 21.9048 2.73724V20.2555C21.9048 21.1687 21.1753 21.8979 20.2619 21.8979H15.881V14.2336H17.973L18.7399 10.4015H15.881V9.3066C15.881 9.00187 15.9098 8.97728 16.0125 8.91099C16.1152 8.84469 16.4318 8.75916 16.9762 8.75916H18.619V5.67656L18.3067 5.52793C18.3067 5.52793 17.0489 4.92702 15.3333 4.92702C14.1012 4.92702 13.0894 5.4178 12.4412 6.22721C11.7931 7.03662 11.5 8.12082 11.5 9.3066V10.4015H9.85714V14.2336H11.5V21.8979H2.7381C1.82468 21.8979 1.09524 21.1687 1.09524 20.2555V2.73724C1.09524 1.82411 1.82468 1.09489 2.7381 1.09489ZM15.3333 6.02192C16.4714 6.02192 17.188 6.27319 17.5238 6.40577V7.66426H16.9762C16.3462 7.66426 15.8414 7.71665 15.4157 7.99252C14.99 8.26838 14.7857 8.7923 14.7857 9.3066V11.4964H17.4029L17.0746 13.1387H14.7857V21.8979H12.5952V13.1387H10.9524V11.4964H12.5952V9.3066C12.5952 8.30259 12.8498 7.47073 13.2969 6.91152C13.744 6.35231 14.375 6.02192 15.3333 6.02192Z" fill="#DD7059"/>
</svg>
