<svg width="23" height="23" viewBox="0 0 23 23" fill="none" xmlns="http://www.w3.org/2000/svg">
<path d="M6.79545 -0.000244141C3.04856 -0.000244141 0 3.04835 0 6.79528V16.2045C0 19.9514 3.04856 23 6.79545 23H16.2045C19.9514 23 23 19.9514 23 16.2045V6.79528C23 3.04835 19.9514 -0.000244141 16.2045 -0.000244141H6.79545ZM6.79545 1.04522H16.2045C19.3858 1.04522 21.9545 3.61396 21.9545 6.79528V16.2045C21.9545 19.3858 19.3858 21.9545 16.2045 21.9545H6.79545C3.61417 21.9545 1.04545 19.3858 1.04545 16.2045V6.79528C1.04545 3.61396 3.61417 1.04522 6.79545 1.04522ZM17.7727 4.18162C17.1949 4.18162 16.7273 4.64922 16.7273 5.22708C16.7273 5.80495 17.1949 6.27255 17.7727 6.27255C18.3506 6.27255 18.8182 5.80495 18.8182 5.22708C18.8182 4.64922 18.3506 4.18162 17.7727 4.18162ZM11.5 5.74982C8.33097 5.74982 5.75 8.33081 5.75 11.4999C5.75 14.6689 8.33097 17.2499 11.5 17.2499C14.669 17.2499 17.25 14.6689 17.25 11.4999C17.25 8.33081 14.669 5.74982 11.5 5.74982ZM11.5 6.79528C14.1044 6.79528 16.2045 8.8954 16.2045 11.4999C16.2045 14.1044 14.1044 16.2045 11.5 16.2045C8.89555 16.2045 6.79545 14.1044 6.79545 11.4999C6.79545 8.8954 8.89555 6.79528 11.5 6.79528Z" fill="#DD7059"/>
</svg>
