<svg width="44" height="44" viewBox="0 0 44 44" fill="none" xmlns="http://www.w3.org/2000/svg">
<path d="M13 -0.000244141C5.83203 -0.000244141 0 5.83179 0 12.9998V30.9998C0 38.1677 5.83203 43.9997 13 43.9997H31C38.168 43.9997 44 38.1677 44 30.9998V12.9998C44 5.83179 38.168 -0.000244141 31 -0.000244141H13ZM13 1.99976H31C37.0859 1.99976 42 6.91382 42 12.9998V30.9998C42 37.0857 37.0859 41.9997 31 41.9997H13C6.91406 41.9997 2 37.0857 2 30.9998V12.9998C2 6.91382 6.91406 1.99976 13 1.99976ZM34 7.99975C32.8945 7.99975 32 8.89429 32 9.99975C32 11.1052 32.8945 11.9998 34 11.9998C35.1055 11.9998 36 11.1052 36 9.99975C36 8.89429 35.1055 7.99975 34 7.99975ZM22 10.9998C15.9375 10.9998 11 15.9373 11 21.9998C11 28.0623 15.9375 32.9997 22 32.9997C28.0625 32.9997 33 28.0623 33 21.9998C33 15.9373 28.0625 10.9998 22 10.9998ZM22 12.9998C26.9824 12.9998 31 17.0173 31 21.9998C31 26.9822 26.9824 30.9998 22 30.9998C17.0176 30.9998 13 26.9822 13 21.9998C13 17.0173 17.0176 12.9998 22 12.9998Z" fill="#EB8671"/>
</svg>
