<svg width="13" height="6" viewBox="0 0 13 6" fill="none" xmlns="http://www.w3.org/2000/svg">
<path d="M4.16494 0.9845V6H3.48594V2.437C3.48594 2.33667 3.48827 2.23283 3.49294 2.1255C3.4976 2.01583 3.5081 1.90033 3.52444 1.779C3.48477 1.884 3.44277 1.982 3.39844 2.073C3.3541 2.164 3.3086 2.24333 3.26194 2.311L0.909938 5.7865C0.877271 5.84017 0.835271 5.88917 0.783938 5.9335C0.732604 5.97783 0.673104 6 0.605438 6H0.101438V0.9845H0.780438V4.551C0.780438 4.65133 0.778104 4.75633 0.773438 4.866C0.768771 4.97333 0.758271 5.08883 0.741938 5.2125C0.781604 5.10517 0.823604 5.006 0.867938 4.915C0.914604 4.824 0.960104 4.7435 1.00444 4.6735L3.35644 1.198C3.3891 1.14433 3.4311 1.09533 3.48244 1.051C3.53377 1.00667 3.59327 0.9845 3.66094 0.9845H4.16494ZM9.19695 2.444V6H8.63345V3.6445C8.63345 3.57917 8.63695 3.50683 8.64395 3.4275C8.65329 3.34583 8.66495 3.27 8.67895 3.2L7.44695 5.3595C7.42829 5.3945 7.40379 5.4225 7.37345 5.4435C7.34312 5.4645 7.30812 5.475 7.26845 5.475H7.19845C7.15879 5.475 7.12262 5.4645 7.08995 5.4435C7.05962 5.4225 7.03512 5.3945 7.01645 5.3595L5.76345 3.193C5.77512 3.263 5.78562 3.34 5.79495 3.424C5.80429 3.50567 5.80895 3.57917 5.80895 3.6445V6H5.24545V2.444H5.74595C5.79029 2.444 5.83345 2.4545 5.87545 2.4755C5.91745 2.49417 5.95362 2.53033 5.98395 2.584L7.08995 4.432C7.14362 4.53933 7.19145 4.6525 7.23345 4.7715C7.27312 4.64783 7.31979 4.53467 7.37345 4.432L8.45845 2.584C8.48879 2.528 8.52495 2.49067 8.56695 2.472C8.60895 2.45333 8.65212 2.444 8.69645 2.444H9.19695ZM12.0465 4.11V2.8745H11.4515C11.3185 2.8745 11.2065 2.89433 11.1155 2.934C11.0245 2.97133 10.951 3.02033 10.895 3.081C10.8413 3.13933 10.8028 3.20583 10.7795 3.2805C10.7562 3.35283 10.7445 3.42517 10.7445 3.4975C10.7445 3.68883 10.8145 3.83933 10.9545 3.949C11.0945 4.05633 11.2858 4.11 11.5285 4.11H12.0465ZM12.6415 2.4545V6H12.0465V4.5055H11.7735C11.7082 4.5055 11.6533 4.51133 11.609 4.523C11.567 4.53233 11.5297 4.54633 11.497 4.565C11.4667 4.58367 11.4398 4.60817 11.4165 4.6385C11.3932 4.6665 11.3687 4.69917 11.343 4.7365L10.566 5.783C10.5263 5.85767 10.4773 5.9125 10.419 5.9475C10.363 5.9825 10.2802 6 10.1705 6H9.7365L10.7655 4.663C10.8495 4.523 10.9603 4.42967 11.098 4.383C10.9183 4.35967 10.7667 4.31767 10.643 4.257C10.5193 4.19633 10.4178 4.12517 10.3385 4.0435C10.2615 3.9595 10.2055 3.86733 10.1705 3.767C10.1355 3.66667 10.118 3.56517 10.118 3.4625C10.118 3.34117 10.1413 3.21983 10.188 3.0985C10.237 2.97717 10.314 2.86983 10.419 2.7765C10.524 2.68083 10.6593 2.60383 10.825 2.5455C10.993 2.48483 11.196 2.4545 11.434 2.4545H12.6415Z" fill="black" fill-opacity="0.54"/>
</svg>
