<svg width="24" height="8" viewBox="0 0 24 8" fill="none" xmlns="http://www.w3.org/2000/svg">
<path d="M4.508 6H3.8255V1.52H1.3195V6H0.6405V0.9845H4.508V6ZM7.45992 4.404C7.17292 4.41333 6.92792 4.43667 6.72492 4.474C6.52426 4.509 6.35976 4.55567 6.23142 4.614C6.10542 4.67233 6.01326 4.74117 5.95492 4.8205C5.89892 4.89983 5.87092 4.9885 5.87092 5.0865C5.87092 5.17983 5.88609 5.26033 5.91642 5.328C5.94676 5.39567 5.98759 5.45167 6.03892 5.496C6.09259 5.538 6.15442 5.5695 6.22442 5.5905C6.29676 5.60917 6.37376 5.6185 6.45542 5.6185C6.56509 5.6185 6.66542 5.608 6.75642 5.587C6.84742 5.56367 6.93259 5.531 7.01192 5.489C7.09359 5.447 7.17059 5.39683 7.24292 5.3385C7.31759 5.28017 7.38992 5.21367 7.45992 5.139V4.404ZM5.44742 2.955C5.64342 2.766 5.85459 2.62483 6.08092 2.5315C6.30726 2.43817 6.55809 2.3915 6.83342 2.3915C7.03176 2.3915 7.20792 2.42417 7.36192 2.4895C7.51592 2.55483 7.64542 2.64583 7.75042 2.7625C7.85542 2.87917 7.93476 3.02033 7.98842 3.186C8.04209 3.35167 8.06892 3.53367 8.06892 3.732V6H7.79242C7.73176 6 7.68509 5.99067 7.65242 5.972C7.61976 5.951 7.59409 5.91133 7.57542 5.853L7.50542 5.517C7.41209 5.60333 7.32109 5.68033 7.23242 5.748C7.14376 5.81333 7.05042 5.86933 6.95242 5.916C6.85442 5.96033 6.74942 5.99417 6.63742 6.0175C6.52776 6.04317 6.40526 6.056 6.26992 6.056C6.13226 6.056 6.00276 6.03733 5.88142 6C5.76009 5.96033 5.65392 5.902 5.56292 5.825C5.47426 5.748 5.40309 5.65117 5.34942 5.5345C5.29809 5.4155 5.27242 5.2755 5.27242 5.1145C5.27242 4.9745 5.31092 4.84033 5.38792 4.712C5.46492 4.58133 5.58976 4.46583 5.76242 4.3655C5.93509 4.26517 6.16026 4.1835 6.43792 4.1205C6.71559 4.05517 7.05626 4.01783 7.45992 4.0085V3.732C7.45992 3.45667 7.40042 3.249 7.28142 3.109C7.16242 2.96667 6.98859 2.8955 6.75992 2.8955C6.60592 2.8955 6.47642 2.91533 6.37142 2.955C6.26876 2.99233 6.17892 3.0355 6.10192 3.0845C6.02726 3.13117 5.96192 3.17433 5.90592 3.214C5.85226 3.25133 5.79859 3.27 5.74492 3.27C5.70292 3.27 5.66676 3.2595 5.63642 3.2385C5.60609 3.21517 5.58042 3.18717 5.55942 3.1545L5.44742 2.955ZM9.64441 5.146C9.75875 5.3 9.88358 5.4085 10.0189 5.4715C10.1542 5.5345 10.3059 5.566 10.4739 5.566C10.8052 5.566 11.0596 5.44817 11.2369 5.2125C11.4142 4.97683 11.5029 4.64083 11.5029 4.2045C11.5029 3.9735 11.4819 3.77517 11.4399 3.6095C11.4002 3.44383 11.3419 3.3085 11.2649 3.2035C11.1879 3.09617 11.0934 3.018 10.9814 2.969C10.8694 2.92 10.7422 2.8955 10.5999 2.8955C10.3969 2.8955 10.2184 2.94217 10.0644 3.0355C9.91275 3.12883 9.77275 3.26067 9.64441 3.431V5.146ZM9.61291 3.004C9.76225 2.81967 9.93491 2.6715 10.1309 2.5595C10.3269 2.4475 10.5509 2.3915 10.8029 2.3915C11.0082 2.3915 11.1937 2.43117 11.3594 2.5105C11.5251 2.5875 11.6662 2.703 11.7829 2.857C11.8996 3.00867 11.9894 3.19767 12.0524 3.424C12.1154 3.65033 12.1469 3.9105 12.1469 4.2045C12.1469 4.46583 12.1119 4.70967 12.0419 4.936C11.9719 5.16 11.8704 5.35483 11.7374 5.5205C11.6067 5.68383 11.4457 5.81333 11.2544 5.909C11.0654 6.00233 10.8519 6.049 10.6139 6.049C10.3969 6.049 10.2102 6.01283 10.0539 5.9405C9.89991 5.86583 9.76341 5.76317 9.64441 5.6325V7.2005H9.01791V2.4545H9.39241C9.48108 2.4545 9.53591 2.49767 9.55691 2.584L9.61291 3.004ZM14.4294 2.3985C14.6884 2.3985 14.9217 2.44167 15.1294 2.528C15.3371 2.61433 15.5144 2.73683 15.6614 2.8955C15.8084 3.05417 15.9204 3.24667 15.9974 3.473C16.0767 3.697 16.1164 3.94783 16.1164 4.2255C16.1164 4.5055 16.0767 4.7575 15.9974 4.9815C15.9204 5.2055 15.8084 5.39683 15.6614 5.5555C15.5144 5.71417 15.3371 5.83667 15.1294 5.923C14.9217 6.007 14.6884 6.049 14.4294 6.049C14.1681 6.049 13.9324 6.007 13.7224 5.923C13.5147 5.83667 13.3374 5.71417 13.1904 5.5555C13.0434 5.39683 12.9302 5.2055 12.8509 4.9815C12.7739 4.7575 12.7354 4.5055 12.7354 4.2255C12.7354 3.94783 12.7739 3.697 12.8509 3.473C12.9302 3.24667 13.0434 3.05417 13.1904 2.8955C13.3374 2.73683 13.5147 2.61433 13.7224 2.528C13.9324 2.44167 14.1681 2.3985 14.4294 2.3985ZM14.4294 5.5625C14.7794 5.5625 15.0407 5.44583 15.2134 5.2125C15.3861 4.97683 15.4724 4.649 15.4724 4.229C15.4724 3.80667 15.3861 3.47767 15.2134 3.242C15.0407 3.00633 14.7794 2.8885 14.4294 2.8885C14.2521 2.8885 14.0969 2.91883 13.9639 2.9795C13.8332 3.04017 13.7236 3.12767 13.6349 3.242C13.5486 3.35633 13.4832 3.4975 13.4389 3.6655C13.3969 3.83117 13.3759 4.019 13.3759 4.229C13.3759 4.649 13.4622 4.97683 13.6349 5.2125C13.8099 5.44583 14.0747 5.5625 14.4294 5.5625ZM19.912 6H19.289V2.9445H18.169C18.141 3.39483 18.099 3.7845 18.043 4.1135C17.987 4.44017 17.9194 4.719 17.84 4.95C17.763 5.17867 17.6755 5.36533 17.5775 5.51C17.4819 5.65233 17.3804 5.76317 17.273 5.8425C17.168 5.92183 17.0584 5.9755 16.944 6.0035C16.832 6.0315 16.72 6.0455 16.608 6.0455C16.4097 6.0455 16.3105 6.014 16.3105 5.951V5.5555H16.4925C16.5719 5.5555 16.6524 5.5415 16.734 5.5135C16.8157 5.4855 16.895 5.43183 16.972 5.3525C17.0514 5.27317 17.1272 5.16233 17.1995 5.02C17.2719 4.87533 17.3372 4.68867 17.3955 4.46C17.4562 4.229 17.5075 3.95017 17.5495 3.6235C17.5939 3.2945 17.6277 2.90483 17.651 2.4545H19.912V6ZM22.2603 5.545C22.3863 5.545 22.4948 5.52983 22.5858 5.4995C22.6791 5.46683 22.7561 5.4225 22.8168 5.3665C22.8774 5.30817 22.9229 5.2405 22.9533 5.1635C22.9836 5.0865 22.9988 5.0025 22.9988 4.9115C22.9988 4.8275 22.9859 4.74933 22.9603 4.677C22.9346 4.60233 22.8914 4.537 22.8308 4.481C22.7724 4.425 22.6954 4.38067 22.5998 4.348C22.5041 4.31533 22.3874 4.299 22.2498 4.299H21.4973V5.545H22.2603ZM22.2498 3.844C22.4948 3.844 22.7001 3.87317 22.8658 3.9315C23.0338 3.98983 23.1679 4.068 23.2683 4.166C23.3709 4.264 23.4444 4.37717 23.4888 4.5055C23.5331 4.63383 23.5553 4.76683 23.5553 4.9045C23.5553 5.06317 23.5273 5.21017 23.4713 5.3455C23.4153 5.4785 23.3324 5.594 23.2228 5.692C23.1131 5.78767 22.9778 5.8635 22.8168 5.9195C22.6558 5.97317 22.4703 6 22.2603 6H20.8988V2.4545H21.4973V3.844H22.2498Z" fill="black" fill-opacity="0.54"/>
</svg>
