<svg width="28" height="8" viewBox="0 0 28 8" fill="none" xmlns="http://www.w3.org/2000/svg">
<path d="M4.032 1.555H2.408V6H1.7325V1.555H0.105V0.9845H4.032V1.555ZM6.14775 3.8405C6.14775 3.69583 6.12675 3.564 6.08475 3.445C6.04508 3.32367 5.98558 3.21983 5.90625 3.1335C5.82925 3.04483 5.73475 2.97717 5.62275 2.9305C5.51075 2.8815 5.38358 2.857 5.24125 2.857C4.94258 2.857 4.70575 2.9445 4.53075 3.1195C4.35808 3.29217 4.25075 3.5325 4.20875 3.8405H6.14775ZM6.65175 5.503C6.57475 5.59633 6.48258 5.678 6.37525 5.748C6.26792 5.81567 6.15242 5.87167 6.02875 5.916C5.90742 5.96033 5.78142 5.993 5.65075 6.014C5.52008 6.03733 5.39058 6.049 5.26225 6.049C5.01725 6.049 4.79092 6.00817 4.58325 5.9265C4.37792 5.8425 4.19942 5.72117 4.04775 5.5625C3.89842 5.4015 3.78175 5.20317 3.69775 4.9675C3.61375 4.73183 3.57175 4.46117 3.57175 4.1555C3.57175 3.90817 3.60908 3.67717 3.68375 3.4625C3.76075 3.24783 3.87042 3.06233 4.01275 2.906C4.15508 2.74733 4.32892 2.62367 4.53425 2.535C4.73958 2.444 4.97058 2.3985 5.22725 2.3985C5.43958 2.3985 5.63558 2.43467 5.81525 2.507C5.99725 2.577 6.15358 2.67967 6.28425 2.815C6.41725 2.948 6.52108 3.11367 6.59575 3.312C6.67042 3.508 6.70775 3.732 6.70775 3.984C6.70775 4.082 6.69725 4.14733 6.67625 4.18C6.65525 4.21267 6.61558 4.229 6.55725 4.229H4.18775C4.19475 4.453 4.22508 4.64783 4.27875 4.8135C4.33475 4.97917 4.41175 5.118 4.50975 5.23C4.60775 5.33967 4.72442 5.4225 4.85975 5.4785C4.99508 5.53217 5.14675 5.559 5.31475 5.559C5.47108 5.559 5.60525 5.5415 5.71725 5.5065C5.83158 5.46917 5.92958 5.4295 6.01125 5.3875C6.09292 5.3455 6.16058 5.307 6.21425 5.272C6.27025 5.23467 6.31808 5.216 6.35775 5.216C6.40908 5.216 6.44875 5.23583 6.47675 5.2755L6.65175 5.503ZM10.581 6H9.95799V2.9445H8.83799C8.80999 3.39483 8.76799 3.7845 8.71199 4.1135C8.65599 4.44017 8.58833 4.719 8.50899 4.95C8.43199 5.17867 8.34449 5.36533 8.24649 5.51C8.15083 5.65233 8.04933 5.76317 7.94199 5.8425C7.83699 5.92183 7.72733 5.9755 7.61299 6.0035C7.50099 6.0315 7.38899 6.0455 7.27699 6.0455C7.07866 6.0455 6.97949 6.014 6.97949 5.951V5.5555H7.16149C7.24083 5.5555 7.32133 5.5415 7.40299 5.5135C7.48466 5.4855 7.56399 5.43183 7.64099 5.3525C7.72033 5.27317 7.79616 5.16233 7.86849 5.02C7.94083 4.87533 8.00616 4.68867 8.06449 4.46C8.12516 4.229 8.17649 3.95017 8.21849 3.6235C8.26283 3.2945 8.29666 2.90483 8.31999 2.4545H10.581V6ZM13.9407 3.8405C13.9407 3.69583 13.9197 3.564 13.8777 3.445C13.8381 3.32367 13.7786 3.21983 13.6992 3.1335C13.6222 3.04483 13.5277 2.97717 13.4157 2.9305C13.3037 2.8815 13.1766 2.857 13.0342 2.857C12.7356 2.857 12.4987 2.9445 12.3237 3.1195C12.1511 3.29217 12.0437 3.5325 12.0017 3.8405H13.9407ZM14.4447 5.503C14.3677 5.59633 14.2756 5.678 14.1682 5.748C14.0609 5.81567 13.9454 5.87167 13.8217 5.916C13.7004 5.96033 13.5744 5.993 13.4437 6.014C13.3131 6.03733 13.1836 6.049 13.0552 6.049C12.8102 6.049 12.5839 6.00817 12.3762 5.9265C12.1709 5.8425 11.9924 5.72117 11.8407 5.5625C11.6914 5.4015 11.5747 5.20317 11.4907 4.9675C11.4067 4.73183 11.3647 4.46117 11.3647 4.1555C11.3647 3.90817 11.4021 3.67717 11.4767 3.4625C11.5537 3.24783 11.6634 3.06233 11.8057 2.906C11.9481 2.74733 12.1219 2.62367 12.3272 2.535C12.5326 2.444 12.7636 2.3985 13.0202 2.3985C13.2326 2.3985 13.4286 2.43467 13.6082 2.507C13.7902 2.577 13.9466 2.67967 14.0772 2.815C14.2102 2.948 14.3141 3.11367 14.3887 3.312C14.4634 3.508 14.5007 3.732 14.5007 3.984C14.5007 4.082 14.4902 4.14733 14.4692 4.18C14.4482 4.21267 14.4086 4.229 14.3502 4.229H11.9807C11.9877 4.453 12.0181 4.64783 12.0717 4.8135C12.1277 4.97917 12.2047 5.118 12.3027 5.23C12.4007 5.33967 12.5174 5.4225 12.6527 5.4785C12.7881 5.53217 12.9397 5.559 13.1077 5.559C13.2641 5.559 13.3982 5.5415 13.5102 5.5065C13.6246 5.46917 13.7226 5.4295 13.8042 5.3875C13.8859 5.3455 13.9536 5.307 14.0072 5.272C14.0632 5.23467 14.1111 5.216 14.1507 5.216C14.2021 5.216 14.2417 5.23583 14.2697 5.2755L14.4447 5.503ZM17.5165 5.5765C17.7241 5.56717 17.9073 5.52867 18.066 5.461C18.227 5.39333 18.3611 5.30233 18.4685 5.188C18.5781 5.07133 18.6598 4.9325 18.7135 4.7715C18.7695 4.6105 18.7975 4.42967 18.7975 4.229C18.7975 4.026 18.7695 3.844 18.7135 3.683C18.6598 3.51967 18.5781 3.37967 18.4685 3.263C18.3611 3.14633 18.227 3.05533 18.066 2.99C17.9073 2.92233 17.723 2.88267 17.513 2.871V5.545L17.5165 5.5765ZM16.9635 2.871C16.7535 2.88267 16.5691 2.92233 16.4105 2.99C16.2518 3.05533 16.1176 3.14633 16.008 3.263C15.9006 3.37967 15.819 3.51967 15.763 3.683C15.7093 3.84633 15.6825 4.02833 15.6825 4.229C15.6825 4.42967 15.7093 4.6105 15.763 4.7715C15.819 4.9325 15.9006 5.07133 16.008 5.188C16.1153 5.30233 16.2483 5.39333 16.407 5.461C16.568 5.52867 16.7523 5.56717 16.96 5.5765L16.9635 5.5555V2.871ZM17.534 2.402C17.8256 2.41367 18.0881 2.465 18.3215 2.556C18.5548 2.647 18.7531 2.77183 18.9165 2.9305C19.0798 3.08917 19.2046 3.27817 19.291 3.4975C19.3796 3.7145 19.424 3.95717 19.424 4.2255C19.424 4.49383 19.3796 4.73767 19.291 4.957C19.2046 5.174 19.0798 5.36183 18.9165 5.5205C18.7531 5.67683 18.5548 5.8005 18.3215 5.8915C18.0881 5.9825 17.8256 6.03383 17.534 6.0455V7.2215H16.946V6.0455C16.6543 6.03383 16.3918 5.9825 16.1585 5.8915C15.9251 5.8005 15.7268 5.67683 15.5635 5.5205C15.4001 5.36183 15.2741 5.174 15.1855 4.957C15.0991 4.73767 15.056 4.49383 15.056 4.2255C15.056 3.95717 15.0991 3.7145 15.1855 3.4975C15.2741 3.27817 15.4001 3.08917 15.5635 2.9305C15.7268 2.77183 15.9251 2.647 16.1585 2.556C16.3918 2.465 16.6543 2.41367 16.946 2.402V0.9845H17.534V2.402ZM21.696 2.3985C21.955 2.3985 22.1883 2.44167 22.396 2.528C22.6037 2.61433 22.781 2.73683 22.928 2.8955C23.075 3.05417 23.187 3.24667 23.264 3.473C23.3433 3.697 23.383 3.94783 23.383 4.2255C23.383 4.5055 23.3433 4.7575 23.264 4.9815C23.187 5.2055 23.075 5.39683 22.928 5.5555C22.781 5.71417 22.6037 5.83667 22.396 5.923C22.1883 6.007 21.955 6.049 21.696 6.049C21.4347 6.049 21.199 6.007 20.989 5.923C20.7813 5.83667 20.604 5.71417 20.457 5.5555C20.31 5.39683 20.1968 5.2055 20.1175 4.9815C20.0405 4.7575 20.002 4.5055 20.002 4.2255C20.002 3.94783 20.0405 3.697 20.1175 3.473C20.1968 3.24667 20.31 3.05417 20.457 2.8955C20.604 2.73683 20.7813 2.61433 20.989 2.528C21.199 2.44167 21.4347 2.3985 21.696 2.3985ZM21.696 5.5625C22.046 5.5625 22.3073 5.44583 22.48 5.2125C22.6527 4.97683 22.739 4.649 22.739 4.229C22.739 3.80667 22.6527 3.47767 22.48 3.242C22.3073 3.00633 22.046 2.8885 21.696 2.8885C21.5187 2.8885 21.3635 2.91883 21.2305 2.9795C21.0998 3.04017 20.9902 3.12767 20.9015 3.242C20.8152 3.35633 20.7498 3.4975 20.7055 3.6655C20.6635 3.83117 20.6425 4.019 20.6425 4.229C20.6425 4.649 20.7288 4.97683 20.9015 5.2125C21.0765 5.44583 21.3413 5.5625 21.696 5.5625ZM27.1272 2.4545V6H26.5007V4.341H24.7997V6H24.1732V2.4545H24.7997V3.8685H26.5007V2.4545H27.1272Z" fill="black" fill-opacity="0.54"/>
</svg>
