<svg width="23" height="24" viewBox="0 0 23 24" fill="none" xmlns="http://www.w3.org/2000/svg">
<path d="M11.1857 -0.000202266C10.4392 0.00387382 9.69046 0.0466717 8.93535 0.134306C7.49145 0.30346 6.06038 0.584703 4.68707 1.18591C2.50303 2.14173 0.954314 3.76398 0.5051 6.12194C0.314718 7.11649 0.160702 8.1253 0.0729984 9.14022C-0.0959919 11.111 0.00882471 13.0878 0.594942 15.03C1.05699 16.5606 1.90836 17.9362 3.39932 18.8289C4.03036 19.2059 4.86248 19.3893 5.29672 19.5809C5.41865 19.6359 5.4486 19.6685 5.45501 19.6767C5.46143 19.6828 5.47854 19.6971 5.4764 19.8193C5.46143 21.0666 5.4764 23.4796 5.4764 23.4796L5.47854 23.9993H6.45612L6.61441 23.8525C6.61441 23.8525 9.09793 21.5761 9.99635 20.6386C10.1589 20.4715 10.2424 20.3777 10.2595 20.3676C10.2744 20.3574 10.2488 20.3512 10.4156 20.3472C11.5943 20.3248 12.7708 20.282 13.9473 20.2208C15.4982 20.1393 17.079 19.9987 18.5999 19.3934C19.924 18.8655 21.0299 18.0035 21.6995 16.7114C22.384 15.3867 22.7498 13.9825 22.8867 12.5294C23.1134 10.1103 23.0343 7.68713 22.3326 5.29859C21.9198 3.89849 21.0898 2.71441 19.817 1.87883C18.294 0.880213 16.5763 0.505221 14.8949 0.266775C13.9131 0.128192 12.9248 0.0364818 11.9323 0.00794973C11.6841 0.00183578 11.436 -0.00224031 11.1857 -0.000202266ZM11.9023 1.0514C12.8457 1.07586 13.789 1.16349 14.7345 1.298C16.3559 1.5283 17.8854 1.87883 19.1967 2.73887C20.2598 3.43586 20.923 4.37742 21.278 5.5778C21.9326 7.81145 22.016 10.1001 21.7957 12.4377C21.6695 13.7848 21.3337 15.0545 20.7155 16.2508C20.17 17.3065 19.3186 17.977 18.1763 18.4315C16.8501 18.9593 15.4083 19.0999 13.8895 19.1794C12.7259 19.2405 11.56 19.2813 10.3942 19.3037C10.1012 19.3098 9.81453 19.3832 9.61131 19.5259C9.4081 19.6685 9.31611 19.801 9.18991 19.9314C8.54817 20.5999 7.26898 21.7758 6.57163 22.4198C6.56735 21.6413 6.56093 20.6997 6.57163 19.8316C6.57591 19.5646 6.51174 19.2915 6.3513 19.0755C6.19087 18.8594 5.97054 18.729 5.75877 18.6353C5.14056 18.3622 4.33198 18.1543 3.98116 17.9444C2.75545 17.2107 2.06024 16.1102 1.64739 14.7406C1.10619 12.9492 1.00351 11.1049 1.16395 9.22785C1.24951 8.25369 1.39711 7.27749 1.58321 6.30944C1.97253 4.2694 3.19611 2.98547 5.1427 2.13358C6.37269 1.59555 7.68611 1.33061 9.07012 1.16961C10.0135 1.05956 10.9568 1.02491 11.9023 1.0514ZM12.1333 3.65189C11.682 3.65189 11.2435 3.7008 10.8178 3.79047C10.5247 3.85569 10.3386 4.1349 10.4049 4.41614C10.4712 4.69738 10.7664 4.87265 11.0616 4.80947C11.406 4.73407 11.7654 4.69535 12.1333 4.69535C14.8072 4.69535 16.9635 6.74965 16.9635 9.29511C16.9635 9.64768 16.9228 9.99007 16.8437 10.3202C16.7773 10.5994 16.9613 10.8807 17.2565 10.9438C17.5517 11.007 17.8448 10.8297 17.9111 10.5485C18.0073 10.145 18.0587 9.72716 18.0587 9.29511C18.0587 6.18512 15.3998 3.65189 12.1333 3.65189ZM6.67003 4.69738C6.58019 4.69331 6.4882 4.69942 6.39194 4.7198C5.39726 4.92972 4.40899 5.61652 4.38118 6.8434C4.40899 7.01459 4.40685 7.19801 4.47316 7.3529C4.7983 8.11103 5.08067 8.89362 5.4871 9.611C7.46578 13.096 10.4584 15.5192 14.2724 17.0578C14.7281 17.2413 15.1987 17.28 15.6586 17.0966C16.2918 16.8459 16.8287 16.4587 17.1859 15.9023C17.6758 15.1381 17.6822 14.6082 16.8757 14.0436C16.3474 13.6727 15.8276 13.2916 15.2928 12.9289C14.4778 12.3786 13.5965 12.2828 12.989 13.2488C12.9569 13.2977 12.9098 13.3385 12.8692 13.3793C12.5569 13.6951 12.174 13.7726 11.7675 13.6136C10.2252 13.0083 9.03375 12.0321 8.31501 10.579C7.89146 9.72513 8.00698 9.29715 8.79845 8.72854C8.8776 8.67352 8.95247 8.61442 9.0252 8.55124C9.37173 8.24962 9.46371 7.89093 9.25836 7.48537C8.79417 6.56011 8.17597 5.73472 7.39305 5.02346C7.18128 4.83189 6.93956 4.71165 6.67003 4.69738ZM12.1248 5.21707C11.8831 5.21707 11.6435 5.23542 11.4082 5.27414C11.2092 5.29859 11.0402 5.42495 10.9675 5.60226C10.8948 5.7816 10.9311 5.98336 11.0595 6.1301C11.19 6.27479 11.3953 6.34205 11.5921 6.30129C11.7633 6.27479 11.9429 6.26053 12.1248 6.26053C13.9045 6.26053 15.3334 7.62191 15.3334 9.31753C15.3334 9.49076 15.3185 9.66195 15.2907 9.82499C15.2479 10.0125 15.3185 10.2081 15.4704 10.3324C15.6244 10.4547 15.8361 10.4894 16.0244 10.4201C16.2105 10.3508 16.3431 10.1898 16.3688 10.0003C16.4094 9.77608 16.4287 9.54782 16.4287 9.31753C16.4287 7.05942 14.4949 5.21707 12.1248 5.21707ZM12.0478 6.78226C11.851 6.78022 11.667 6.87804 11.5665 7.04108C11.4681 7.20412 11.4681 7.40385 11.5665 7.56689C11.667 7.72993 11.851 7.82775 12.0478 7.82571C12.9612 7.82571 13.6906 8.52067 13.6906 9.39089C13.6885 9.57839 13.7911 9.75366 13.9623 9.84944C14.1334 9.94319 14.343 9.94319 14.5142 9.84944C14.6853 9.75366 14.788 9.57839 14.7858 9.39089C14.7858 7.95614 13.5537 6.78226 12.0478 6.78226Z" fill="#DD7059"/>
</svg>
