<svg width="42" height="46" viewBox="0 0 42 46" fill="none" xmlns="http://www.w3.org/2000/svg">
<path d="M20.4263 0.000283733C19.063 0.0080964 17.6958 0.0901276 16.3169 0.258097C13.6802 0.582315 11.0669 1.12138 8.55909 2.27372C4.5708 4.10575 1.74268 7.21513 0.922365 11.7347C0.574709 13.6409 0.293459 15.5745 0.133303 17.5198C-0.175291 21.2972 0.0161148 25.0862 1.08643 28.8089C1.93018 31.7425 3.48487 34.3792 6.20752 36.0901C7.35987 36.8128 8.8794 37.1643 9.67237 37.5315C9.89502 37.637 9.94971 37.6995 9.96143 37.7151C9.97315 37.7268 10.0044 37.7542 10.0005 37.9886C9.97315 40.3792 10.0005 45.0042 10.0005 45.0042L10.0044 46.0003H11.7896L12.0786 45.719C12.0786 45.719 16.6138 41.3558 18.2544 39.5589C18.5513 39.2386 18.7036 39.0589 18.7349 39.0393C18.7622 39.0198 18.7153 39.0081 19.02 39.0003C21.1724 38.9573 23.3208 38.8753 25.4692 38.7581C28.3013 38.6018 31.188 38.3323 33.9653 37.1722C36.3833 36.1604 38.4028 34.5081 39.6255 32.0315C40.8755 29.4925 41.5435 26.8011 41.7935 24.0159C42.2075 19.3792 42.063 14.7347 40.7818 10.1565C40.0278 7.47294 38.5122 5.20341 36.188 3.60185C33.4067 1.68778 30.27 0.969034 27.1997 0.512002C25.4067 0.246377 23.6021 0.0705964 21.7896 0.0159087C21.3364 0.00419007 20.8833 -0.0036226 20.4263 0.000283733ZM21.7349 2.01591C23.4575 2.06278 25.1802 2.23075 26.9067 2.48856C29.8677 2.92997 32.6607 3.60185 35.0552 5.25028C36.9966 6.58622 38.2075 8.39091 38.856 10.6917C40.0513 14.9729 40.2036 19.3597 39.8013 23.8401C39.5708 26.4222 38.9575 28.8558 37.8286 31.1487C36.8325 33.1722 35.2778 34.4573 33.1919 35.3284C30.77 36.3401 28.1372 36.6097 25.3638 36.762C23.2388 36.8792 21.1099 36.9573 18.981 37.0003C18.4458 37.012 17.9224 37.1526 17.5513 37.4261C17.1802 37.6995 17.0122 37.9534 16.7817 38.2034C15.6099 39.4847 13.2739 41.7386 12.0005 42.9729C11.9927 41.4808 11.981 39.6761 12.0005 38.012C12.0083 37.5003 11.8911 36.9768 11.5981 36.5628C11.3052 36.1487 10.9028 35.8987 10.5161 35.719C9.38721 35.1956 7.91065 34.7972 7.27002 34.3948C5.03174 32.9886 3.76221 30.8792 3.0083 28.2542C2.02002 24.8206 1.83252 21.2854 2.12549 17.6878C2.28174 15.8206 2.55127 13.9495 2.89112 12.094C3.60205 8.18388 5.83643 5.72294 9.39112 4.09013C11.6372 3.05888 14.0356 2.55106 16.563 2.24247C18.2857 2.03153 20.0083 1.96513 21.7349 2.01591ZM22.1567 7.00028C21.3325 7.00028 20.5317 7.09403 19.7544 7.26591C19.2192 7.39091 18.8794 7.92607 19.0005 8.46513C19.1216 9.00419 19.6607 9.34013 20.1997 9.21903C20.8286 9.0745 21.4849 9.00028 22.1567 9.00028C27.0396 9.00028 30.9771 12.9378 30.9771 17.8167C30.9771 18.4925 30.9028 19.1487 30.7583 19.7815C30.6372 20.3167 30.9732 20.8558 31.5122 20.9768C32.0513 21.0979 32.5864 20.7581 32.7075 20.219C32.8833 19.4456 32.9771 18.6448 32.9771 17.8167C32.9771 11.8558 28.1216 7.00028 22.1567 7.00028ZM12.1802 9.00419C12.0161 8.99638 11.8481 9.0081 11.6724 9.04716C9.85596 9.4495 8.05127 10.7659 8.00049 13.1175C8.05127 13.4456 8.04737 13.7972 8.16846 14.094C8.76221 15.5472 9.27784 17.0472 10.02 18.4222C13.6333 25.1018 19.0982 29.7464 26.063 32.6956C26.895 33.0472 27.7544 33.1214 28.5942 32.7698C29.7505 32.2893 30.731 31.5472 31.3833 30.4808C32.2778 29.0159 32.2896 28.0003 30.8169 26.9183C29.8521 26.2073 28.9028 25.4768 27.9263 24.7815C26.438 23.7268 24.8286 23.5433 23.7192 25.3948C23.6607 25.4886 23.5747 25.5667 23.5005 25.6448C22.9302 26.2503 22.231 26.3987 21.4888 26.094C18.6724 24.9339 16.4966 23.0628 15.1841 20.2776C14.4107 18.6409 14.6216 17.8206 16.0669 16.7308C16.2114 16.6253 16.3482 16.512 16.481 16.3909C17.1138 15.8128 17.2817 15.1253 16.9067 14.3479C16.0591 12.5745 14.9302 10.9925 13.5005 9.62919C13.1138 9.262 12.6724 9.03153 12.1802 9.00419ZM22.1411 10.0003C21.6997 10.0003 21.2622 10.0354 20.8325 10.1097C20.4692 10.1565 20.1607 10.3987 20.0278 10.7386C19.895 11.0823 19.9614 11.469 20.1958 11.7503C20.4341 12.0276 20.8091 12.1565 21.1685 12.0784C21.481 12.0276 21.8091 12.0003 22.1411 12.0003C25.3911 12.0003 28.0005 14.6097 28.0005 17.8597C28.0005 18.1917 27.9732 18.5198 27.9224 18.8323C27.8442 19.1917 27.9732 19.5667 28.2505 19.805C28.5317 20.0393 28.9185 20.1058 29.2622 19.9729C29.6021 19.8401 29.8442 19.5315 29.8911 19.1683C29.9653 18.7386 30.0005 18.3011 30.0005 17.8597C30.0005 13.5315 26.4692 10.0003 22.1411 10.0003ZM22.0005 13.0003C21.6411 12.9964 21.3052 13.1839 21.1216 13.4964C20.9419 13.8089 20.9419 14.1917 21.1216 14.5042C21.3052 14.8167 21.6411 15.0042 22.0005 15.0003C23.6685 15.0003 25.0005 16.3323 25.0005 18.0003C24.9966 18.3597 25.1841 18.6956 25.4966 18.8792C25.8091 19.0589 26.1919 19.0589 26.5044 18.8792C26.8169 18.6956 27.0044 18.3597 27.0005 18.0003C27.0005 15.2503 24.7505 13.0003 22.0005 13.0003Z" fill="#EB8671"/>
</svg>
