<svg width="23" height="23" viewBox="0 0 23 23" fill="none" xmlns="http://www.w3.org/2000/svg">
<path d="M11.5 0C5.15495 0 0 5.15503 0 11.5002C0 13.5399 0.559245 15.443 1.49219 17.1044L0.0188801 22.3656C-0.0292969 22.5368 0.0175781 22.7211 0.141276 22.8487C0.264974 22.9763 0.447266 23.0284 0.620443 22.9854L6.10547 21.626C7.71745 22.4867 9.54622 23.0004 11.5 23.0004C17.8451 23.0004 23 17.8453 23 11.5002C23 5.15503 17.8451 0 11.5 0ZM11.5 1.00002C17.3047 1.00002 22 5.6954 22 11.5002C22 17.305 17.3047 22.0004 11.5 22.0004C9.63932 22.0004 7.89583 21.5153 6.38086 20.667C6.27018 20.6051 6.13997 20.5882 6.01628 20.6182L1.21289 21.8089L2.50065 17.2132C2.53841 17.0817 2.52018 16.941 2.45117 16.8232C1.5306 15.262 1 13.4455 1 11.5002C1 5.6954 5.69531 1.00002 11.5 1.00002ZM7.32161 5.50009C7.00065 5.50009 6.54297 5.61923 6.16732 6.02484C5.94141 6.26768 5 7.18501 5 8.79702C5 10.478 6.16602 11.9279 6.30664 12.1148H6.30794V12.1154C6.29427 12.0979 6.48633 12.3765 6.74349 12.7105C7 13.0438 7.35872 13.4826 7.8099 13.9573C8.71159 14.9065 9.97917 16.0042 11.5527 16.6754C12.2773 16.9833 12.849 17.1702 13.2826 17.3063C14.0846 17.5582 14.8158 17.5198 15.3652 17.4391C15.776 17.3785 16.2285 17.1806 16.6758 16.8974C17.123 16.6148 17.5618 16.2626 17.7552 15.7281C17.8932 15.3446 17.9635 14.9898 17.9896 14.6988C18.002 14.553 18.0039 14.4241 17.9941 14.3049C17.9844 14.1858 17.9948 14.0946 17.8841 13.9123C17.651 13.5302 17.3874 13.5204 17.1126 13.3843C16.9596 13.3082 16.5241 13.0959 16.0879 12.8882C15.6517 12.6799 15.2747 12.4963 15.0423 12.4136C14.8952 12.3602 14.7155 12.2841 14.457 12.314C14.1986 12.3433 13.9427 12.5295 13.7943 12.7502C13.653 12.9592 13.0853 13.6291 12.9121 13.8264C12.9095 13.8251 12.9251 13.8316 12.8568 13.7984C12.6426 13.6923 12.3809 13.6018 11.9935 13.3973C11.6055 13.1936 11.1211 12.8915 10.5911 12.424V12.4227C9.80143 11.7281 9.2487 10.8556 9.07422 10.5627C9.08594 10.549 9.07292 10.5659 9.09766 10.5412L9.09896 10.5399C9.27669 10.3647 9.4349 10.1551 9.56836 10.0008C9.75781 9.78336 9.84115 9.59065 9.93164 9.41096C10.112 9.05353 10.0117 8.65964 9.90755 8.45196V8.45131C9.91471 8.46563 9.85091 8.325 9.78255 8.16289C9.71354 8.00078 9.62565 7.78984 9.53255 7.56522C9.34505 7.11665 9.13607 6.61274 9.01172 6.31716V6.31651C8.86523 5.96885 8.66732 5.71884 8.4082 5.59775C8.14909 5.47665 7.92057 5.51116 7.91146 5.5105H7.91016C7.72526 5.50204 7.52279 5.50009 7.32161 5.50009ZM7.32161 6.5001C7.51432 6.5001 7.70443 6.50271 7.86328 6.50987C8.02734 6.51833 8.01693 6.51898 7.98568 6.50401C7.95312 6.48904 7.99674 6.48448 8.08984 6.70519C8.21159 6.99425 8.42188 7.49947 8.60938 7.95065C8.70313 8.17591 8.79102 8.38685 8.86133 8.55287C8.93164 8.71889 8.9694 8.81134 9.01367 8.89988V8.90053L9.01497 8.90183C9.05794 8.98712 9.05404 8.93243 9.03906 8.96238C8.93359 9.17137 8.91927 9.2228 8.8125 9.34585C8.64974 9.53336 8.48438 9.74169 8.39648 9.82828C8.31966 9.9038 8.18099 10.021 8.09505 10.2515C8.00781 10.4813 8.04883 10.7977 8.1875 11.0334C8.3724 11.3472 8.98242 12.34 9.92969 13.174C10.5267 13.7001 11.082 14.0484 11.526 14.2828C11.9707 14.5165 12.332 14.6532 12.4128 14.6936C12.6055 14.7886 12.8151 14.8629 13.0592 14.8336C13.304 14.8036 13.5143 14.6558 13.6484 14.5041L13.6491 14.5035C13.8281 14.301 14.3581 13.6955 14.612 13.3225C14.623 13.3264 14.6198 13.3231 14.7038 13.3537V13.355H14.7051C14.7435 13.3687 15.2272 13.5849 15.6582 13.7906C16.0892 13.9957 16.5267 14.2092 16.6686 14.2795C16.8743 14.3811 16.9714 14.4475 16.9961 14.4475C16.998 14.4918 16.9993 14.5393 16.9928 14.6116C16.9759 14.8121 16.9219 15.0901 16.8145 15.3883C16.7617 15.5335 16.4876 15.8342 16.1413 16.053C15.7956 16.2717 15.3743 16.4267 15.2187 16.4495C14.75 16.5185 14.1934 16.5439 13.582 16.3518C13.1582 16.219 12.6296 16.0465 11.9453 15.7555C10.5573 15.163 9.3776 14.1558 8.53516 13.2691C8.11393 12.8251 7.77604 12.4123 7.53581 12.0998C7.29622 11.7879 7.19206 11.6258 7.10417 11.5113L7.10352 11.5099C6.94857 11.3049 6 9.98584 6 8.79702C6 7.53918 6.58398 7.04569 6.90039 6.70519C7.06641 6.52615 7.24805 6.5001 7.32096 6.5001H7.32161Z" fill="#DD7059"/>
</svg>
