<svg width="46" height="46" viewBox="0 0 46 46" fill="none" xmlns="http://www.w3.org/2000/svg">
<path d="M23 -0.000366211C10.3099 -0.000366211 0 10.3095 0 22.9996C0 27.0791 1.11849 30.8851 2.98437 34.208L0.0377603 44.7301C-0.0585937 45.0726 0.0351562 45.441 0.282552 45.6963C0.529948 45.9515 0.894531 46.0556 1.24089 45.9697L12.2109 43.2509C15.4349 44.9723 19.0924 45.9996 23 45.9996C35.6901 45.9996 46 35.6897 46 22.9996C46 10.3095 35.6901 -0.000366211 23 -0.000366211ZM23 1.99963C34.6094 1.99963 44 11.3903 44 22.9996C44 34.609 34.6094 43.9996 23 43.9996C19.2786 43.9996 15.7917 43.0296 12.7617 41.333C12.5404 41.2093 12.2799 41.1754 12.0325 41.2353L2.42578 43.6168L5.0013 34.4254C5.07682 34.1624 5.04036 33.8811 4.90234 33.6455C3.0612 30.5231 2 26.8903 2 22.9996C2 11.3903 11.3906 1.99963 23 1.99963ZM14.6432 10.9996C14.0013 10.9996 13.0859 11.2379 12.3346 12.0491C11.8828 12.5348 10 14.3694 10 17.5934C10 20.9554 12.332 23.8551 12.6133 24.2288H12.6159V24.2301C12.5885 24.195 12.9727 24.7522 13.487 25.4202C14 26.0869 14.7174 26.9645 15.6198 27.9137C17.4232 29.8121 19.9583 32.0075 23.1055 33.3499C24.5547 33.9658 25.6979 34.3395 26.5651 34.6116C28.1693 35.1155 29.6315 35.0387 30.7305 34.8772C31.5521 34.7561 32.457 34.3603 33.3516 33.7939C34.2461 33.2288 35.1237 32.5244 35.5104 31.4554C35.7865 30.6884 35.9271 29.9788 35.9792 29.3968C36.0039 29.1051 36.0078 28.8473 35.9883 28.609C35.9687 28.3707 35.9896 28.1884 35.7682 27.8239C35.3021 27.0595 34.7747 27.04 34.2253 26.7679C33.9193 26.6155 33.0482 26.191 32.1758 25.7757C31.3034 25.359 30.5495 24.9918 30.0846 24.8265C29.7904 24.7197 29.431 24.5673 28.9141 24.6272C28.3971 24.6858 27.8854 25.0582 27.5885 25.4996C27.306 25.9176 26.1706 27.2575 25.8242 27.652C25.819 27.6494 25.8503 27.6624 25.7135 27.596C25.2852 27.3838 24.7617 27.2028 23.987 26.7939C23.2109 26.3864 22.2422 25.7822 21.1823 24.8473V24.8447C19.6029 23.4554 18.4974 21.7106 18.1484 21.1246C18.1719 21.0973 18.1458 21.1311 18.1953 21.0817L18.1979 21.0791C18.5534 20.7288 18.8698 20.3095 19.1367 20.0009C19.5156 19.566 19.6823 19.1806 19.8633 18.8213C20.224 18.1064 20.0234 17.3186 19.8151 16.9033V16.902C19.8294 16.9306 19.7018 16.6494 19.5651 16.3252C19.4271 16.0009 19.2513 15.5791 19.0651 15.1298C18.6901 14.2327 18.2721 13.2249 18.0234 12.6337V12.6324C17.7305 11.9371 17.3346 11.4371 16.8164 11.1949C16.2982 10.9528 15.8411 11.0218 15.8229 11.0205H15.8203C15.4505 11.0035 15.0456 10.9996 14.6432 10.9996ZM14.6432 12.9996C15.0286 12.9996 15.4089 13.0048 15.7266 13.0192C16.0547 13.0361 16.0339 13.0374 15.9714 13.0074C15.9062 12.9775 15.9935 12.9684 16.1797 13.4098C16.4232 13.9879 16.8437 14.9983 17.2187 15.9007C17.4062 16.3512 17.582 16.7731 17.7227 17.1051C17.8633 17.4371 17.9388 17.622 18.0273 17.7991V17.8004L18.0299 17.803C18.1159 17.9736 18.1081 17.8642 18.0781 17.9241C17.8672 18.3421 17.8385 18.4449 17.625 18.691C17.2995 19.066 16.9687 19.4827 16.793 19.6559C16.6393 19.8069 16.362 20.0413 16.1901 20.5022C16.0156 20.9619 16.0977 21.5947 16.375 22.066C16.7448 22.6936 17.9648 24.6793 19.8594 26.3473C21.0534 27.3994 22.1641 28.096 23.0521 28.5647C23.9414 29.0322 24.6641 29.3056 24.8255 29.3864C25.2109 29.5765 25.6302 29.7249 26.1185 29.6663C26.6081 29.6064 27.0286 29.3108 27.2969 29.0075L27.2982 29.0061C27.6562 28.6012 28.7161 27.3903 29.224 26.6442C29.2461 26.652 29.2396 26.6455 29.4075 26.7067V26.7093H29.4102C29.487 26.7366 30.4544 27.1689 31.3164 27.5804C32.1784 27.9905 33.0534 28.4176 33.3372 28.5582C33.7487 28.7614 33.9427 28.8942 33.9922 28.8942C33.9961 28.9827 33.9987 29.0778 33.9857 29.2223C33.9518 29.6233 33.8437 30.1793 33.6289 30.7757C33.5234 31.066 32.9753 31.6676 32.2825 32.1051C31.5911 32.5426 30.7487 32.8525 30.4375 32.8981C29.5 33.0361 28.3867 33.0869 27.1641 32.7028C26.3164 32.4371 25.2591 32.0921 23.8906 31.5101C21.1146 30.3252 18.7552 28.3108 17.0703 26.5374C16.2279 25.6494 15.5521 24.8239 15.0716 24.1989C14.5924 23.5752 14.3841 23.2509 14.2083 23.0218L14.207 23.0192C13.8971 22.609 12 19.971 12 17.5934C12 15.0778 13.168 14.0908 13.8008 13.4098C14.1328 13.0517 14.4961 12.9996 14.6419 12.9996H14.6432Z" fill="#EB8671"/>
</svg>
